<svg id="Warstwa_1" data-name="Warstwa 1" xmlns="http://www.w3.org/2000/svg" viewBox="0 0 375 375"><defs><style>.cls-1{fill:#fff;}</style></defs><path class="cls-1" d="M375,375H0V0H375ZM274.38,250.74c-.65-1.55-1.09-2.69-1.59-3.79C255,208,237.09,169.06,219.46,130c-1.82-4-3.93-5.09-8.24-5.33-5.82-.34-8.61,1.6-10.62,6.95-2.86,7.6-6.64,14.86-10.37,23-3.47-7.54-7.22-14.09-9.5-21.11-2.39-7.34-6.54-9.8-13.92-8.78-2.58.36-3.86,1-4.92,3.36Q134.65,188,107.27,247.76c-.39.86-.63,1.79-1,3,3.71,0,7.07-.17,10.41.05,2.39.16,3.51-.75,4.44-2.88,4.07-9.37,8.37-18.63,12.43-28,.93-2.13,2.05-2.91,4.43-2.89q32,.16,64,0a4.1,4.1,0,0,1,4.43,2.9q6.1,14.06,12.55,27.95c.52,1.14,1.82,2.61,2.86,2.7,3.91.32,7.86.12,12.32.12l-15.29-33.65c8.3,0,15.9.1,23.5-.06,2.35-.05,3.51.7,4.45,2.86,4.12,9.48,8.38,18.9,12.71,28.28.48,1,1.69,2.39,2.64,2.46C266,250.91,270,250.74,274.38,250.74Z"/><path d="M274.38,250.74c-4.4,0-8.36.17-12.3-.11-.95-.07-2.16-1.42-2.64-2.46-4.33-9.38-8.59-18.8-12.71-28.28-.94-2.16-2.1-2.91-4.45-2.86-7.6.16-15.2.06-23.5.06l15.29,33.65c-4.46,0-8.41.2-12.32-.12-1-.09-2.34-1.56-2.86-2.7Q212.46,234,206.34,220a4.1,4.1,0,0,0-4.43-2.9q-32,.13-64,0c-2.38,0-3.5.76-4.43,2.89-4.06,9.37-8.36,18.63-12.43,28-.93,2.13-2,3-4.44,2.88-3.34-.22-6.7-.05-10.41-.05.41-1.2.65-2.13,1-3q27.33-59.82,54.62-119.63c1.06-2.31,2.34-3,4.92-3.36,7.38-1,11.53,1.44,13.92,8.78,2.28,7,6,13.57,9.5,21.11,3.73-8.16,7.51-15.42,10.37-23,2-5.35,4.8-7.29,10.62-6.95,4.31.24,6.42,1.31,8.24,5.33,17.63,39,35.52,78,53.33,116.93C273.29,248.05,273.73,249.19,274.38,250.74Zm-104.46-112c-10.27,23-20.13,45.08-30,67.28H200Zm70.65,67.69c-10.12-22.66-20-44.73-30.22-67.67-4.63,10.35-8.9,19.83-13,29.35a3.93,3.93,0,0,0,.33,2.78q7.53,16.68,15.23,33.28c.44.95,1.66,2.14,2.55,2.16C223.58,206.45,231.76,206.38,240.57,206.38Z"/><path class="cls-1" d="M169.92,138.69,200,206H139.87C149.79,183.77,159.65,161.69,169.92,138.69Z"/><path class="cls-1" d="M240.57,206.38c-8.81,0-17,.07-25.16-.1-.89,0-2.11-1.21-2.55-2.16q-7.74-16.58-15.23-33.28a3.93,3.93,0,0,1-.33-2.78c4.15-9.52,8.42-19,13-29.35C220.59,161.65,230.45,183.72,240.57,206.38Z"/></svg>