<svg id="Warstwa_1" data-name="Warstwa 1" xmlns="http://www.w3.org/2000/svg" viewBox="0 0 244.45 244.45"><defs><style>.cls-1{fill:#fff;}</style></defs><path d="M153.32,151.74l15.32,33.67c-4.5,0-8.46.16-12.39-.11-1-.07-2.18-1.4-2.66-2.44-4.33-9.38-8.59-18.81-12.71-28.29-.94-2.17-2.13-2.85-4.47-2.84q-31.8.12-63.62-.06c-2.71,0-3.9,1-4.92,3.3-4,9.26-8.26,18.41-12.27,27.68-.94,2.17-2.13,3-4.48,2.82-3.33-.21-6.68-.06-10.51-.06.64-1.5,1.07-2.62,1.57-3.71Q69.26,122.38,96.29,63c1.19-2.64,2.67-3.28,5.51-3.65,7.16-.95,11,1.6,13.34,8.52,2.42,7.11,6.14,13.78,9.64,21.39,4.17-9.09,8.15-17.34,11.71-25.77,1.33-3.14,3.08-3.78,6.32-4.16,6.77-.79,9.83,1.91,12.56,8,17,38.11,34.52,76,51.85,114,.56,1.22,1.07,2.45,1.79,4.08-4.36,0-8.22.19-12-.12-1.07-.08-2.46-1.41-3-2.51-4.25-9.15-8.47-18.33-12.38-27.62-1.18-2.8-2.69-3.57-5.58-3.49C168.69,151.88,161.34,151.74,153.32,151.74ZM104.47,73.31c-10.28,23-20.14,45.11-30,67.29h60.11C124.49,118.14,114.7,96.21,104.47,73.31ZM175.14,141,144.9,73.33c-4.62,10.35-8.89,19.83-13.05,29.37a4,4,0,0,0,.33,2.77q7.53,16.69,15.24,33.3c.44.94,1.66,2.14,2.55,2.16C158.14,141.09,166.32,141,175.14,141Z"/><path class="cls-1" d="M104.47,73.31c10.23,22.9,20,44.83,30.06,67.29H74.42C84.33,118.42,94.19,96.33,104.47,73.31Z"/><path class="cls-1" d="M175.14,141c-8.82,0-17,.06-25.17-.1-.89,0-2.11-1.22-2.55-2.16q-7.74-16.59-15.24-33.3a4,4,0,0,1-.33-2.77c4.16-9.54,8.43-19,13.05-29.37Z"/></svg>