<?xml version="1.0" encoding="utf-8"?>
<!-- Generator: Adobe Illustrator 24.3.0, SVG Export Plug-In . SVG Version: 6.00 Build 0)  -->
<svg version="1.1" id="Warstwa_1" xmlns="http://www.w3.org/2000/svg" xmlns:xlink="http://www.w3.org/1999/xlink" x="0px" y="0px"
	 viewBox="0 0 181.42 181.42" style="enable-background:new 0 0 181.42 181.42;" xml:space="preserve">
<style type="text/css">
	.st0{fill:#FFFFFF;}
</style>
<g>
	<path d="M174.78,153.77c-4.4,0-8.36,0.16-12.3-0.12c-0.95-0.07-2.17-1.41-2.65-2.45c-4.33-9.39-8.59-18.8-12.71-28.29
		c-0.94-2.16-2.1-2.91-4.45-2.86c-7.59,0.16-15.19,0.06-23.5,0.06c5.14,11.32,10.09,22.22,15.29,33.66c-4.46,0-8.41,0.19-12.32-0.13
		c-1.04-0.09-2.34-1.56-2.87-2.7c-4.28-9.27-8.47-18.58-12.54-27.95c-0.92-2.12-2.05-2.91-4.43-2.9
		c-21.33,0.09-42.65,0.07-63.98-0.05c-2.38-0.01-3.5,0.76-4.43,2.89c-4.06,9.37-8.37,18.63-12.43,28c-0.92,2.13-2.05,3.04-4.44,2.88
		c-3.34-0.22-6.71-0.06-10.41-0.06c0.41-1.2,0.65-2.13,1.04-2.99C25.89,110.91,44.13,71.05,62.3,31.15
		c1.05-2.31,4.88-3.51,7.48-3.59c7.49-0.21,8.03,1.56,11.16,9.03c2.85,6.81,6.22,13.54,9.69,21.09c3.73-8.17,7.51-15.42,10.37-23.02
		c2.01-5.35,4.81-7.29,10.62-6.95c4.31,0.25,6.42,1.31,8.24,5.33c17.64,39.04,35.52,77.97,53.33,116.93
		C173.69,151.08,174.13,152.21,174.78,153.77z M70.33,41.71c-10.27,23-20.13,45.08-30.05,67.29c20.21,0,39.92,0,60.1,0
		C90.35,86.54,80.56,64.62,70.33,41.71z M140.98,109.4C130.86,86.74,121,64.67,110.75,41.73c-4.62,10.35-8.9,19.83-13.05,29.36
		c-0.32,0.74-0.04,1.95,0.33,2.77c5.02,11.12,10.07,22.23,15.23,33.29c0.44,0.94,1.67,2.14,2.55,2.16
		C123.98,109.47,132.16,109.4,140.98,109.4z"/>
	<path class="st0" d="M70.33,41.71c10.24,22.92,20.03,44.83,30.05,67.29c-20.19,0-39.89,0-60.1,0
		C50.19,86.79,60.05,64.71,70.33,41.71z"/>
	<path class="st0" d="M140.98,109.4c-8.82,0-17,0.07-25.17-0.1c-0.88-0.02-2.11-1.21-2.55-2.16c-5.16-11.06-10.21-22.17-15.23-33.29
		c-0.37-0.82-0.65-2.03-0.33-2.77c4.15-9.53,8.42-19.01,13.05-29.36C121,64.67,130.86,86.74,140.98,109.4z"/>
</g>
</svg>
